<svg id="visual" viewBox="0 0 960 540" width="960" height="540" xmlns="http://www.w3.org/2000/svg" xmlns:xlink="http://www.w3.org/1999/xlink" version="1.1"><path d="M0 109L17.8 125.2C35.7 141.3 71.3 173.7 106.8 196.2C142.3 218.7 177.7 231.3 213.2 222.3C248.7 213.3 284.3 182.7 320 168.3C355.7 154 391.3 156 426.8 160.5C462.3 165 497.7 172 533.2 161.2C568.7 150.3 604.3 121.7 640 115.3C675.7 109 711.3 125 746.8 136.7C782.3 148.3 817.7 155.7 853.2 150.3C888.7 145 924.3 127 942.2 118L960 109L960 0L942.2 0C924.3 0 888.7 0 853.2 0C817.7 0 782.3 0 746.8 0C711.3 0 675.7 0 640 0C604.3 0 568.7 0 533.2 0C497.7 0 462.3 0 426.8 0C391.3 0 355.7 0 320 0C284.3 0 248.7 0 213.2 0C177.7 0 142.3 0 106.8 0C71.3 0 35.7 0 17.8 0L0 0Z" fill="#00ff83"></path><path d="M0 195L17.8 203.2C35.7 211.3 71.3 227.7 106.8 243C142.3 258.3 177.7 272.7 213.2 270.8C248.7 269 284.3 251 320 242C355.7 233 391.3 233 426.8 231.2C462.3 229.3 497.7 225.7 533.2 212.2C568.7 198.7 604.3 175.3 640 175.3C675.7 175.3 711.3 198.7 746.8 210.3C782.3 222 817.7 222 853.2 214C888.7 206 924.3 190 942.2 182L960 174L960 107L942.2 116C924.3 125 888.7 143 853.2 148.3C817.7 153.7 782.3 146.3 746.8 134.7C711.3 123 675.7 107 640 113.3C604.3 119.7 568.7 148.3 533.2 159.2C497.7 170 462.3 163 426.8 158.5C391.3 154 355.7 152 320 166.3C284.3 180.7 248.7 211.3 213.2 220.3C177.7 229.3 142.3 216.7 106.8 194.2C71.3 171.7 35.7 139.3 17.8 123.2L0 107Z" fill="#00e576"></path><path d="M0 287L17.8 288C35.7 289 71.3 291 106.8 300C142.3 309 177.7 325 213.2 328.5C248.7 332 284.3 323 320 322.2C355.7 321.3 391.3 328.7 426.8 326.8C462.3 325 497.7 314 533.2 300.5C568.7 287 604.3 271 640 266.5C675.7 262 711.3 269 746.8 278C782.3 287 817.7 298 853.2 294.5C888.7 291 924.3 273 942.2 264L960 255L960 172L942.2 180C924.3 188 888.7 204 853.2 212C817.7 220 782.3 220 746.8 208.3C711.3 196.7 675.7 173.3 640 173.3C604.3 173.3 568.7 196.7 533.2 210.2C497.7 223.7 462.3 227.3 426.8 229.2C391.3 231 355.7 231 320 240C284.3 249 248.7 267 213.2 268.8C177.7 270.7 142.3 256.3 106.8 241C71.3 225.7 35.7 209.3 17.8 201.2L0 193Z" fill="#00cb69"></path><path d="M0 395L17.8 403.2C35.7 411.3 71.3 427.7 106.8 434C142.3 440.3 177.7 436.7 213.2 435.7C248.7 434.7 284.3 436.3 320 435.5C355.7 434.7 391.3 431.3 426.8 423.3C462.3 415.3 497.7 402.7 533.2 390C568.7 377.3 604.3 364.7 640 362.8C675.7 361 711.3 370 746.8 374.5C782.3 379 817.7 379 853.2 367.3C888.7 355.7 924.3 332.3 942.2 320.7L960 309L960 253L942.2 262C924.3 271 888.7 289 853.2 292.5C817.7 296 782.3 285 746.8 276C711.3 267 675.7 260 640 264.5C604.3 269 568.7 285 533.2 298.5C497.7 312 462.3 323 426.8 324.8C391.3 326.7 355.7 319.3 320 320.2C284.3 321 248.7 330 213.2 326.5C177.7 323 142.3 307 106.8 298C71.3 289 35.7 287 17.8 286L0 285Z" fill="#00b25c"></path><path d="M0 541L17.8 541C35.7 541 71.3 541 106.8 541C142.3 541 177.7 541 213.2 541C248.7 541 284.3 541 320 541C355.7 541 391.3 541 426.8 541C462.3 541 497.7 541 533.2 541C568.7 541 604.3 541 640 541C675.7 541 711.3 541 746.8 541C782.3 541 817.7 541 853.2 541C888.7 541 924.3 541 942.2 541L960 541L960 307L942.2 318.7C924.3 330.3 888.7 353.7 853.2 365.3C817.7 377 782.3 377 746.8 372.5C711.3 368 675.7 359 640 360.8C604.3 362.7 568.7 375.3 533.2 388C497.7 400.7 462.3 413.3 426.8 421.3C391.3 429.3 355.7 432.7 320 433.5C284.3 434.3 248.7 432.7 213.2 433.7C177.7 434.7 142.3 438.3 106.8 432C71.3 425.7 35.7 409.3 17.8 401.2L0 393Z" fill="#00994f"></path></svg>